<svg version="1.1" id="Layer_1" xmlns="http://www.w3.org/2000/svg" xmlns:xlink="http://www.w3.org/1999/xlink" x="0px" y="0px" width="100%" viewBox="0 0 2203 2203" enable-background="new 0 0 2203 2203" xml:space="preserve">
<path fill="#FCFDFD" opacity="1.000000" stroke="none" d="
M2206.000000,1163.062988 
    C2202.313477,1161.812866 2202.610840,1164.817749 2202.382812,1166.865723 
    C2200.527832,1183.520020 2196.208008,1199.615356 2189.084961,1214.665649 
    C2161.653320,1272.625610 2116.615723,1308.305664 2052.767822,1317.316162 
    C1995.424683,1325.408691 1945.592041,1307.577515 1904.824951,1266.752441 
    C1876.239258,1238.125732 1859.946167,1202.990234 1855.594116,1162.443481 
    C1850.167114,1111.881592 1863.628662,1066.921753 1896.045044,1028.070679 
    C1924.419312,994.064270 1961.027832,973.852417 2005.049927,967.670898 
    C2039.524292,962.829956 2072.790527,967.627808 2104.110840,982.684814 
    C2137.987061,998.970215 2164.381836,1023.632263 2182.295898,1056.957886 
    C2192.922852,1076.726929 2200.581787,1097.447876 2202.491699,1120.027466 
    C2202.584961,1121.131958 2203.846191,1122.137695 2205.281738,1122.594727 
    C2206.000000,1135.375244 2206.000000,1148.750610 2206.000000,1163.062988 
M2017.595825,1016.051147 
    C1950.924683,1021.982910 1894.171387,1082.187866 1904.416626,1160.957397 
    C1913.592529,1231.505859 1979.305908,1279.631348 2049.845947,1268.283813 
    C2119.425049,1257.090698 2166.939453,1189.502930 2152.911865,1117.784546 
    C2140.876709,1056.250366 2084.870605,1010.803406 2017.595825,1016.051147 
z"/>
<path fill="#FCFDFE" opacity="1.000000" stroke="none" d="
M2.000000,980.937317 
    C7.149328,980.919312 6.448709,975.996643 7.592657,973.705261 
    C16.598061,955.667053 28.286016,939.759399 42.587070,925.505493 
    C67.605499,900.569458 97.429672,884.485779 131.947586,878.454773 
    C193.468628,867.705750 247.267059,884.182434 291.287415,928.783813 
    C317.910065,955.757751 333.508942,988.688599 338.389893,1026.555054 
    C344.537201,1074.246216 333.716827,1117.588867 304.590485,1155.795532 
    C273.352386,1196.772583 231.787109,1219.476562 180.231598,1224.283325 
    C150.758102,1227.031372 122.747116,1222.319580 95.779243,1210.767944 
    C57.336098,1194.301147 28.934134,1166.938110 9.452289,1130.093628 
    C7.437991,1126.284180 5.225576,1122.579590 2.552552,1118.413086 
    C2.000000,1072.624878 2.000000,1027.249756 2.000000,980.937317 
M123.630646,1169.681519 
    C144.909561,1176.828247 166.602737,1178.341064 188.663864,1174.309692 
    C255.691864,1162.061157 302.507751,1097.032837 288.993866,1026.481812 
    C276.013947,958.718140 212.210175,917.033569 148.502731,925.465332 
    C82.796234,934.161804 27.618813,996.009644 41.312534,1072.711914 
    C49.706791,1119.730469 77.825302,1151.552856 123.630646,1169.681519 
z"/>
<path fill="#FFFEFE" opacity="1.000000" stroke="none" d="
M1258.000000,1640.135620 
    C1210.357544,1640.135620 1163.715210,1640.135620 1115.986328,1640.135620 
    C1115.986328,1560.754395 1115.986328,1481.670776 1115.986328,1401.500977 
    C935.458252,1401.500977 756.012451,1401.500977 575.664062,1401.500977 
    C575.664062,1397.161499 575.664062,1393.908447 575.664062,1390.655273 
    C575.664062,1310.989502 575.753113,1231.323364 575.499084,1151.658325 
    C575.478210,1145.114502 577.516846,1140.315552 581.610901,1135.677124 
    C618.760437,1093.587891 655.886230,1051.477539 692.929260,1009.294495 
    C727.783081,969.604431 762.484436,929.780457 797.333740,890.086426 
    C834.368164,847.903503 871.529297,805.831848 908.576782,763.660400 
    C946.059937,720.993103 983.450073,678.244141 1020.923340,635.568115 
    C1041.311279,612.349487 1062.004150,589.393311 1082.055664,565.888855 
    C1086.497070,560.682495 1090.987915,559.265869 1097.345581,559.274475 
    C1200.677734,559.413940 1304.009888,559.373230 1407.342163,559.373230 
    C1414.818481,559.373230 1422.294678,559.373230 1432.142822,559.373230 
    C1264.396851,754.062256 1098.311157,946.824219 931.241638,1140.728027 
    C993.892517,1140.728027 1054.985596,1140.728027 1117.306885,1140.728027 
    C1117.422119,1137.399902 1117.645630,1133.904053 1117.648193,1130.407959 
    C1117.674438,1095.074951 1117.824219,1059.740601 1117.511719,1024.410400 
    C1117.457764,1018.297363 1119.079590,1013.673401 1123.082153,1009.259277 
    C1144.742310,985.372681 1166.283081,961.377625 1187.825928,937.384827 
    C1216.449951,905.505798 1244.995972,873.556702 1273.654297,841.708557 
    C1298.993042,813.549316 1324.454956,785.500854 1349.828979,757.373169 
    C1357.385376,748.996765 1364.828003,740.517700 1372.272095,732.142761 
    C1372.776245,732.338440 1373.098999,732.425354 1373.380981,732.584412 
    C1373.638062,732.729431 1373.998291,732.916382 1374.055420,733.148438 
    C1374.213501,733.789185 1374.302979,734.463135 1374.303467,735.124023 
    C1374.405884,869.781677 1374.498047,1004.439270 1374.605225,1139.096924 
    C1374.605469,1139.395508 1374.820435,1139.693726 1375.328857,1141.017334 
    C1435.050415,1141.017334 1495.181519,1141.017334 1555.820312,1141.017334 
    C1555.820312,1227.508545 1555.820312,1312.974976 1555.820312,1399.183105 
    C1495.856079,1399.183105 1436.324219,1399.183105 1375.767334,1399.183105 
    C1375.767334,1479.701172 1375.767334,1559.487549 1375.767334,1640.135620 
    C1336.162842,1640.135620 1297.581421,1640.135620 1258.000000,1640.135620 
z"/>
<path fill="#FEFFFF" opacity="1.000000" stroke="none" d="
M181.666046,1415.798218 
    C179.572922,1445.617676 203.760345,1475.295166 239.701996,1476.122681 
    C242.699799,1476.191772 245.700439,1476.138550 248.699768,1476.138550 
    C506.975006,1476.138916 765.250244,1476.138916 1023.525513,1476.138916 
    C1027.462280,1476.138916 1031.399170,1476.138916 1035.817871,1476.138916 
    C1035.817871,1530.989990 1035.817871,1585.105225 1035.817871,1640.135498 
    C1032.071899,1640.135498 1028.490845,1640.135498 1024.909790,1640.135498 
    C762.635437,1640.135498 500.358521,1640.784668 238.088120,1639.764771 
    C152.402176,1639.431519 87.453964,1599.468750 44.604149,1525.142456 
    C26.036741,1492.936157 17.325666,1457.759766 17.582378,1420.344482 
    C17.916197,1371.691040 17.664003,1323.033691 17.664024,1274.377930 
    C17.664024,1271.093506 17.664022,1267.809082 17.664022,1263.961182 
    C72.374939,1263.961182 126.484688,1263.961182 181.666046,1263.961182 
    C181.666046,1314.381226 181.666046,1364.605835 181.666046,1415.798218 
z"/>
<path fill="#FEFEFE" opacity="1.000000" stroke="none" d="
M1751.999512,723.379761 
    C1630.882568,723.379761 1510.765747,723.379761 1389.187256,723.379761 
    C1391.611206,719.631104 1393.005493,717.119812 1394.729736,714.860168 
    C1433.006958,664.697632 1471.362793,614.594910 1509.537964,564.354919 
    C1512.262817,560.769043 1515.034058,558.902466 1519.483521,559.330383 
    C1521.794312,559.552612 1524.144165,559.369019 1526.476318,559.369019 
    C1643.751709,559.368958 1761.029053,558.980652 1878.301880,559.521606 
    C1943.678467,559.823181 2000.052490,583.247070 2046.975830,629.155884 
    C2082.767090,664.173279 2105.293457,706.317261 2114.779297,755.263367 
    C2117.663818,770.146057 2119.233398,785.485352 2119.454834,800.643921 
    C2120.073242,842.947327 2119.669922,885.265747 2119.669922,927.578186 
    C2119.669922,930.827454 2119.669922,934.076721 2119.669922,937.675537 
    C2064.614502,937.675537 2010.495483,937.675537 1955.660645,937.675537 
    C1955.660645,933.975159 1955.660400,930.721252 1955.660400,927.467346 
    C1955.660278,887.153931 1955.829468,846.839417 1955.585449,806.527466 
    C1955.472656,787.897339 1951.188110,770.312988 1939.540405,755.185608 
    C1922.978271,733.675720 1900.858643,723.462891 1873.939453,723.403076 
    C1833.626343,723.313599 1793.312866,723.379822 1751.999512,723.379761 
z"/>
<path fill="#FDFEFE" opacity="1.000000" stroke="none" d="
M686.000000,554.135620 
    C794.118958,554.135620 901.237915,554.135620 1010.155945,554.135620 
    C1005.154846,559.911804 1001.487000,564.447876 997.509216,568.693542 
    C971.604492,596.342468 945.610962,623.908203 919.689575,651.541565 
    C900.593079,671.899292 881.302856,692.086792 862.709473,712.895691 
    C858.756653,717.319458 855.030762,718.196777 849.897461,718.185608 
    C810.590515,718.100342 771.283386,718.138794 731.976257,718.138794 
    C696.666504,718.138794 661.356750,718.144775 626.046997,718.124756 
    C623.780518,718.123474 621.514221,717.921387 618.821594,717.792236 
    C618.821594,663.215149 618.821594,609.121338 618.821594,554.135620 
    C641.200684,554.135620 663.100342,554.135620 686.000000,554.135620 
z"/>
<path fill="#FCFDFD" opacity="1.000000" stroke="none" d="
M1804.110474,1296.130493 
    C1847.687256,1295.375488 1885.572388,1308.557251 1918.331787,1335.652466 
    C1953.074341,1364.387939 1974.056519,1401.236328 1980.266235,1446.021851 
    C1987.345459,1497.079468 1974.630859,1543.039917 1941.747559,1582.618286 
    C1912.531738,1617.782349 1874.822388,1638.770630 1829.080322,1644.101685 
    C1771.516968,1650.810303 1721.908325,1633.560669 1681.365723,1592.319214 
    C1653.483521,1563.956055 1637.593018,1529.470337 1633.581665,1489.581909 
    C1627.852295,1432.611694 1645.780518,1384.088135 1686.262817,1344.277344 
    C1713.329346,1317.659790 1746.428345,1302.130981 1784.303345,1297.438843 
    C1790.542847,1296.665771 1796.863647,1296.550049 1804.110474,1296.130493 
M1704.595825,1397.709595 
    C1683.424316,1428.007202 1676.606323,1461.444580 1684.020508,1497.459473 
    C1697.074951,1560.872925 1758.633057,1608.040649 1831.361938,1594.781006 
    C1891.315308,1583.850586 1939.975220,1527.016602 1932.390503,1458.221680 
    C1927.145752,1410.648804 1902.283081,1376.223511 1858.990356,1356.196289 
    C1807.264160,1332.267700 1741.968628,1346.499512 1704.595825,1397.709595 
z"/>
<path fill="#FCFDFD" opacity="1.000000" stroke="none" d="
M214.265137,694.390747 
    C218.948547,662.581970 231.010986,634.765442 250.766281,610.662476 
    C279.481598,575.627563 316.111053,553.694885 361.346588,547.440979 
    C419.876068,539.349121 470.603485,556.192688 512.270386,597.810852 
    C539.562988,625.071655 555.692871,658.466980 560.420776,697.160034 
    C567.598755,755.904663 549.961487,806.134094 507.779083,847.115234 
    C479.031342,875.044250 444.049683,890.619873 403.736328,894.259705 
    C354.510345,898.704102 310.868774,885.142517 273.564484,853.336365 
    C239.108749,823.958923 218.877136,786.262573 213.551834,740.845764 
    C211.758713,725.553101 211.992279,710.437561 214.265137,694.390747 
M270.752380,672.036560 
    C260.777222,696.495911 258.614502,721.735474 264.071625,747.473206 
    C276.787140,807.443726 334.087921,856.060242 406.944763,845.076050 
    C473.969482,834.971191 519.477356,773.634033 512.570129,707.250366 
    C505.033813,634.820923 436.237030,581.425781 361.503174,597.252686 
    C319.216156,606.208008 289.246124,631.213745 270.752380,672.036560 
z"/>
<path fill="#FEFEFE" opacity="1.000000" stroke="none" d="
M1590.339111,1498.021729 
    C1590.339111,1545.606689 1590.339111,1592.196533 1590.339111,1639.462158 
    C1543.105835,1639.462158 1496.108521,1639.462158 1448.720825,1639.462158 
    C1448.720825,1585.277466 1448.720825,1531.459473 1448.720825,1476.221924 
    C1464.176025,1476.046631 1479.664429,1476.000122 1495.142578,1476.185303 
    C1510.742188,1476.372192 1526.335083,1477.118530 1541.934692,1477.323608 
    C1557.573730,1477.529175 1573.217529,1477.368896 1590.339111,1477.368896 
    C1590.339111,1484.040894 1590.339111,1490.533813 1590.339111,1498.021729 
z"/>
<path fill="#0DB7FF" opacity="1.000000" stroke="none" d="
M2018.533691,1016.026978 
    C2084.870605,1010.803406 2140.876709,1056.250366 2152.911865,1117.784546 
    C2166.939453,1189.502930 2119.425049,1257.090698 2049.845947,1268.283813 
    C1979.305908,1279.631348 1913.592529,1231.505859 1904.416626,1160.957397 
    C1894.171387,1082.187866 1950.924683,1021.982910 2018.533691,1016.026978 
z"/>
<path fill="#0DB7FF" opacity="1.000000" stroke="none" d="
M122.897461,1169.390259 
    C77.825302,1151.552856 49.706791,1119.730469 41.312534,1072.711914 
    C27.618813,996.009644 82.796234,934.161804 148.502731,925.465332 
    C212.210175,917.033569 276.013947,958.718140 288.993866,1026.481812 
    C302.507751,1097.032837 255.691864,1162.061157 188.663864,1174.309692 
    C166.602737,1178.341064 144.909561,1176.828247 122.897461,1169.390259 
z"/>
<path fill="#0DB7FF" opacity="1.000000" stroke="none" d="
M1705.021973,1397.125977 
    C1741.968628,1346.499512 1807.264160,1332.267700 1858.990356,1356.196289 
    C1902.283081,1376.223511 1927.145752,1410.648804 1932.390503,1458.221680 
    C1939.975220,1527.016602 1891.315308,1583.850586 1831.361938,1594.781006 
    C1758.633057,1608.040649 1697.074951,1560.872925 1684.020508,1497.459473 
    C1676.606323,1461.444580 1683.424316,1428.007202 1705.021973,1397.125977 
z"/>
<path fill="#0DB7FF" opacity="1.000000" stroke="none" d="
M271.098877,671.356201 
    C289.246124,631.213745 319.216156,606.208008 361.503174,597.252686 
    C436.237030,581.425781 505.033813,634.820923 512.570129,707.250366 
    C519.477356,773.634033 473.969482,834.971191 406.944763,845.076050 
    C334.087921,856.060242 276.787140,807.443726 264.071625,747.473206 
    C258.614502,721.735474 260.777222,696.495911 271.098877,671.356201 
z"/>
</svg>
