<svg version="1.1" id="Layer_1" xmlns="http://www.w3.org/2000/svg" xmlns:xlink="http://www.w3.org/1999/xlink" x="0px" y="0px"
	 width="100%" viewBox="0 0 684 340" enable-background="new 0 0 684 340" xml:space="preserve">
<path fill="#00000" opacity="1.000000" stroke="none" 
	d="
M352.468658,341.000000 
	C350.856201,340.052887 349.712433,339.105774 348.057861,337.735718 
	C348.057861,314.569885 348.057861,290.607422 348.057861,266.262939 
	C292.796387,266.262939 237.736099,266.262939 182.000580,266.262939 
	C182.000580,264.305084 182.000580,262.721344 182.000580,261.137604 
	C182.000549,237.311981 182.277435,213.481018 181.816528,189.664307 
	C181.692825,183.271622 185.956100,180.265915 189.154984,176.554993 
	C202.560043,161.004257 216.393326,145.823395 230.007416,130.451828 
	C239.465286,119.773026 248.854950,109.033279 258.215118,98.268600 
	C271.110504,83.438255 283.891541,68.508171 296.832916,53.718243 
	C305.273804,44.071648 313.925385,34.609665 322.457489,25.042618 
	C327.702148,19.161766 332.824188,13.168865 338.180634,7.392624 
	C339.273254,6.214387 341.164551,5.105979 342.691925,5.100245 
	C377.005310,4.971404 411.319305,5.001368 446.278595,5.670702 
	C396.183197,65.455956 344.971252,124.206322 293.947144,183.779358 
	C312.363861,183.779358 330.261444,183.779358 348.002899,183.779358 
	C348.002899,171.876587 347.526123,159.857040 348.317841,147.921631 
	C348.531952,144.694153 352.355225,141.512375 354.919525,138.668167 
	C365.731049,126.676666 376.744904,114.867805 387.585754,102.902435 
	C399.284637,89.990036 410.885529,76.988724 422.496582,63.997025 
	C424.301483,61.977489 425.932404,59.802425 428.647095,56.466240 
	C428.647095,99.839020 428.647095,141.632050 428.647095,183.818451 
	C447.611908,183.818451 466.016418,183.818451 484.708740,183.818451 
	C484.708740,210.943741 484.708740,237.676437 484.708740,264.805298 
	C466.398621,264.805298 447.994110,264.805298 429.254303,264.805298 
	C429.156067,266.610168 429.011017,268.043762 429.010071,269.477417 
	C428.995575,291.303680 429.015900,313.129974 428.969910,334.956146 
	C428.966217,336.715973 428.537140,338.474854 428.652893,340.617096 
	C403.645782,341.000000 378.291534,341.000000 352.468658,341.000000 
z"/>
<path fill="#00000" opacity="1.000000" stroke="none" 
	d="
M77.468658,341.000000 
	C76.180351,340.333527 75.379585,339.110352 74.538300,339.081787 
	C52.062164,338.319366 34.811928,327.644653 21.867382,310.096222 
	C14.331390,299.879913 9.893682,288.051666 9.974197,274.920959 
	C10.081290,257.456146 10.000628,239.990189 10.000628,222.001236 
	C20.197067,222.001236 30.132078,222.001236 40.067089,222.001236 
	C45.731880,222.001236 51.410690,222.244873 57.056782,221.919937 
	C61.165634,221.683472 62.131741,223.256760 62.078369,227.113525 
	C61.880116,241.439377 61.999222,255.769608 61.999290,270.098206 
	C61.999340,280.580200 68.514854,287.000610 79.151451,287.000610 
	C159.124985,287.000549 239.098511,287.000610 319.072052,287.000610 
	C320.875824,287.000610 322.679596,287.000580 324.739655,287.000580 
	C324.739655,304.340576 324.739655,321.408569 324.739655,338.999542 
	C315.966309,338.999542 307.196503,338.999542 298.426727,338.999542 
	C289.596313,338.999542 280.765198,338.941681 271.936218,339.055023 
	C270.417206,339.074524 268.907562,339.822418 267.696777,340.616943 
	C204.645767,341.000000 141.291550,341.000000 77.468658,341.000000 
z"/>
<path fill="#00000" opacity="1.000000" stroke="none" 
	d="
M685.000000,196.531372 
	C684.335999,197.484131 683.226990,197.855927 683.072266,198.468628 
	C677.367798,221.066010 662.594543,234.591843 640.377380,239.689301 
	C624.753174,243.274063 610.343628,238.943451 597.309021,229.815994 
	C585.986145,221.887161 579.489746,210.514984 576.439880,197.587479 
	C572.567749,181.174301 576.408142,165.832169 586.364258,152.139801 
	C594.654175,140.739029 606.133362,133.887894 619.640198,131.328476 
	C636.123047,128.205185 651.243835,132.136414 664.504822,142.916046 
	C674.440125,150.992264 680.655212,161.118332 683.266296,173.575211 
	C683.349304,173.970963 683.959778,174.256134 684.662170,174.296432 
	C685.000000,181.354248 685.000000,188.708496 685.000000,196.531372 
M668.770874,183.741257 
	C668.599915,182.421997 668.472778,181.095322 668.251282,179.784592 
	C665.597717,164.081665 656.797852,153.183197 641.725342,148.322037 
	C626.631958,143.454102 612.864319,146.975555 601.951355,158.558029 
	C590.948425,170.236053 588.242920,184.184601 593.651062,199.329926 
	C600.031738,217.198868 618.072632,227.283813 637.144958,224.029083 
	C655.426147,220.909378 668.405945,204.757614 668.770874,183.741257 
z"/>
<path fill="#00000" opacity="1.000000" stroke="none" 
	d="
M548.468628,341.000000 
	C547.682373,340.345490 547.497681,339.239807 547.027954,339.101349 
	C525.319702,332.701324 512.215698,318.543396 507.966400,296.225342 
	C504.289948,276.915955 509.824829,260.078949 523.802246,247.033188 
	C543.926819,228.249924 573.048340,226.428482 595.608276,244.008057 
	C612.337158,257.043823 618.509521,274.748779 615.630310,294.571899 
	C612.294312,317.540161 598.393555,332.961517 575.417114,339.258606 
	C575.013123,339.369324 574.741760,339.963898 574.704224,340.666382 
	C566.312439,341.000000 557.624817,341.000000 548.468628,341.000000 
M527.015137,304.331207 
	C537.218994,322.401184 557.190002,330.002991 575.589233,322.820496 
	C593.599670,315.789825 603.986206,296.406982 599.324158,277.903625 
	C595.448730,262.522430 585.722168,252.455612 570.195862,248.920517 
	C554.916992,245.441772 541.645630,249.865280 531.702148,261.973572 
	C521.350098,274.579285 520.088623,288.759949 527.015137,304.331207 
z"/>
<path fill="#00000" opacity="1.000000" stroke="none" 
	d="
M1.000002,145.468628 
	C1.664130,144.515228 2.767648,144.145401 2.928900,143.529053 
	C8.824543,120.993675 24.100796,107.812599 46.076553,103.313362 
	C61.737991,100.106903 76.545982,104.270737 89.806259,114.141289 
	C113.269974,131.606949 116.936867,169.124207 98.631935,191.076904 
	C89.190628,202.399628 77.582703,208.801483 63.291798,211.006149 
	C44.274487,213.939957 28.573105,207.411057 15.506357,193.930374 
	C9.246302,187.472031 4.859324,179.803894 2.963149,170.861496 
	C2.778669,169.991486 2.116205,169.222824 1.337807,168.703552 
	C1.000000,161.312424 1.000000,153.624832 1.000002,145.468628 
M80.421974,127.023399 
	C79.482086,126.334381 78.565247,125.611069 77.598846,124.961494 
	C63.664944,115.595703 45.403465,116.133713 32.277870,126.285873 
	C18.996208,136.558746 13.728063,153.973724 19.136757,169.726578 
	C24.543034,185.472366 39.480705,196.043823 56.182720,195.944199 
	C71.851753,195.850739 86.231667,186.024414 91.958984,171.496964 
	C98.126411,155.853134 94.074249,139.619965 80.421974,127.023399 
z"/>
<path fill="#00000" opacity="1.000000" stroke="none" 
	d="
M136.531342,1.000001 
	C137.484512,1.664243 137.866470,2.789656 138.468933,2.923643 
	C147.717239,4.980460 155.730316,9.692204 162.303696,16.087526 
	C170.371674,23.936935 175.848663,33.664135 178.005859,44.976463 
	C181.546844,63.545254 176.449112,79.915398 163.806198,93.372169 
	C154.304123,103.485924 142.027405,109.351227 127.758255,109.998024 
	C110.929016,110.760880 96.421547,105.466537 84.716507,93.188461 
	C75.050423,83.049141 70.204849,71.081970 69.861893,56.875881 
	C69.461929,40.309132 75.433098,26.772305 87.070915,15.472804 
	C93.307297,9.417719 100.793816,5.384511 109.161842,2.984554 
	C110.026688,2.736516 110.782639,2.108755 111.294556,1.328592 
	C119.354233,1.000000 127.708466,1.000000 136.531342,1.000001 
M163.014648,57.335915 
	C163.016464,56.503937 163.051682,55.670494 163.015152,54.840202 
	C162.315674,38.940907 154.944809,27.078243 140.551575,20.439543 
	C125.983910,13.720387 111.798607,15.573971 99.416161,25.855062 
	C87.339478,35.882278 83.142548,49.182941 86.521828,64.419960 
	C90.719170,83.345657 107.808777,95.434357 127.636681,94.139519 
	C146.259415,92.923378 160.939255,78.016266 163.014648,57.335915 
z"/>
<path fill="#00000" opacity="1.000000" stroke="none" 
	d="
M450.468658,341.000000 
	C450.000000,323.538910 450.000000,306.077789 450.000000,288.308838 
	C465.229340,288.308838 480.286560,288.308838 495.999512,288.308838 
	C495.999512,291.372925 495.999512,294.625610 495.999512,297.878296 
	C495.999512,310.193176 496.065094,322.508759 495.927856,334.822113 
	C495.907562,336.643341 494.928467,338.453888 494.696472,340.634705 
	C480.312439,341.000000 465.624878,341.000000 450.468658,341.000000 
z"/>
<path fill="#00000" opacity="1.000000" stroke="none" 
	d="
M651.282104,48.717278 
	C655.900818,58.043499 658.185364,67.485680 658.052185,77.596169 
	C657.850708,92.886604 657.999573,108.181656 657.999573,123.736298 
	C640.671997,123.736298 623.609192,123.736298 606.000793,123.736298 
	C606.000793,109.166595 606.026306,94.576057 605.967346,79.985878 
	C605.960266,78.235817 605.672180,76.439484 605.213196,74.746246 
	C601.914978,62.579483 593.212280,57.132675 581.176636,57.082127 
	C533.380920,56.881367 485.583893,56.999458 437.787354,56.999420 
	C435.971924,56.999420 434.156494,56.999420 431.307281,56.999420 
	C435.379639,51.554150 438.973419,46.710293 442.607727,41.897030 
	C450.805176,31.040316 458.982758,20.168163 467.259460,9.372087 
	C469.383087,6.602031 471.792542,4.842351 475.924103,4.868719 
	C511.894958,5.098285 547.871094,4.713805 583.838867,5.121626 
	C601.982239,5.327345 618.152100,11.614963 632.175720,23.531237 
	C640.384705,30.506643 646.679260,38.656906 651.282104,48.717278 
z"/>
<path fill="#00000" opacity="1.000000" stroke="none" 
	d="
M316.957458,4.031332 
	C310.233154,11.880848 303.514832,19.369080 296.706482,26.774536 
	C288.336243,35.878891 279.975464,44.995899 271.385559,53.890099 
	C270.115356,55.205296 267.611603,55.900524 265.672943,55.911774 
	C242.354691,56.047066 219.035385,55.999294 195.358170,55.999294 
	C195.358170,38.860744 195.358170,21.792444 195.358170,4.000499 
	C196.805328,4.000499 198.549484,4.000497 200.293640,4.000499 
	C237.108932,4.000533 273.924225,4.006476 310.739502,3.984928 
	C312.800903,3.983721 314.862152,3.755759 316.957458,4.031332 
z"/>
<path fill="#0EB7FF" opacity="1.000000" stroke="none" 
	d="
M668.791870,184.181747 
	C668.405945,204.757614 655.426147,220.909378 637.144958,224.029083 
	C618.072632,227.283813 600.031738,217.198868 593.651062,199.329926 
	C588.242920,184.184601 590.948425,170.236053 601.951355,158.558029 
	C612.864319,146.975555 626.631958,143.454102 641.725342,148.322037 
	C656.797852,153.183197 665.597717,164.081665 668.251282,179.784592 
	C668.472778,181.095322 668.599915,182.421997 668.791870,184.181747 
z"/>
<path fill="#0EB7FF" opacity="1.000000" stroke="none" 
	d="
M526.853882,303.989258 
	C520.088623,288.759949 521.350098,274.579285 531.702148,261.973572 
	C541.645630,249.865280 554.916992,245.441772 570.195862,248.920517 
	C585.722168,252.455612 595.448730,262.522430 599.324158,277.903625 
	C603.986206,296.406982 593.599670,315.789825 575.589233,322.820496 
	C557.190002,330.002991 537.218994,322.401184 526.853882,303.989258 
z"/>
<path fill="#0EB8FF" opacity="1.000000" stroke="none" 
	d="
M80.696808,127.252258 
	C94.074249,139.619965 98.126411,155.853134 91.958984,171.496964 
	C86.231667,186.024414 71.851753,195.850739 56.182720,195.944199 
	C39.480705,196.043823 24.543034,185.472366 19.136757,169.726578 
	C13.728063,153.973724 18.996208,136.558746 32.277870,126.285873 
	C45.403465,116.133713 63.664944,115.595703 77.598846,124.961494 
	C78.565247,125.611069 79.482086,126.334381 80.696808,127.252258 
z"/>
<path fill="#0EB8FF" opacity="1.000000" stroke="none" 
	d="
M162.997894,57.791908 
	C160.939255,78.016266 146.259415,92.923378 127.636681,94.139519 
	C107.808777,95.434357 90.719170,83.345657 86.521828,64.419960 
	C83.142548,49.182941 87.339478,35.882278 99.416161,25.855062 
	C111.798607,15.573971 125.983910,13.720387 140.551575,20.439543 
	C154.944809,27.078243 162.315674,38.940907 163.015152,54.840202 
	C163.051682,55.670494 163.016464,56.503937 162.997894,57.791908 
z"/>
</svg>