<svg xmlns="http://www.w3.org/2000/svg" xml:space="preserve" viewBox="0 0 684 340"><path fill="#FFF" d="M352.469 341c-1.613-.947-2.757-1.894-4.411-3.264v-71.473H182v-5.125c0-23.826.276-47.657-.184-71.474-.124-6.392 4.14-9.398 7.338-13.109 13.405-15.55 27.238-30.732 40.852-46.103a4693.164 4693.164 0 0 0 28.208-32.183c12.896-14.83 25.677-29.76 38.618-44.55 8.44-9.647 17.092-19.11 25.624-28.676 5.245-5.881 10.367-11.874 15.724-17.65 1.092-1.179 2.984-2.287 4.51-2.293 34.314-.129 68.628-.099 103.588.57-50.096 59.786-101.308 118.536-152.332 178.11h54.056c0-11.903-.477-23.923.315-35.858.214-3.228 4.037-6.41 6.602-9.254 10.811-11.991 21.825-23.8 32.666-35.766 11.699-12.912 23.3-25.913 34.91-38.905 1.805-2.02 3.436-4.195 6.151-7.53v127.351h56.062v80.987h-55.455c-.098 1.805-.243 3.239-.244 4.672-.014 21.827.006 43.653-.04 65.48-.004 1.759-.433 3.518-.317 5.66-25.007.383-50.361.383-76.184.383z"/><path fill="#FFF" d="M77.469 341c-1.289-.666-2.09-1.89-2.93-1.918-22.477-.763-39.727-11.437-52.672-28.986-7.536-10.216-11.973-22.044-11.893-35.175.107-17.465.027-34.93.027-52.92h30.066c5.665 0 11.344.244 16.99-.081 4.109-.237 5.075 1.337 5.021 5.194C61.88 241.439 62 255.77 62 270.098c0 10.482 6.516 16.903 17.152 16.903H324.74V339h-26.313c-8.83 0-17.662-.058-26.49.055-1.52.02-3.03.767-4.24 1.562-63.051.383-126.405.383-190.228.383z"/><path fill="#FDFEFF" d="M685 196.531c-.664.953-1.773 1.325-1.928 1.938-5.704 22.597-20.477 36.123-42.695 41.22-15.624 3.585-30.033-.746-43.068-9.873-11.323-7.929-17.82-19.301-20.87-32.229-3.871-16.413-.03-31.755 9.925-45.447 8.29-11.401 19.77-18.252 33.276-20.812 16.483-3.123 31.604.808 44.865 11.588 9.935 8.076 16.15 18.202 18.761 30.66.083.395.694.68 1.396.72.338 7.058.338 14.412.338 22.235m-16.23-12.79c-.17-1.319-.297-2.646-.519-3.956-2.653-15.703-11.453-26.602-26.526-31.463-15.093-4.868-28.86-1.346-39.774 10.236-11.003 11.678-13.708 25.627-8.3 40.772 6.38 17.869 24.422 27.954 43.494 24.7 18.281-3.12 31.26-19.272 31.626-40.289zM548.469 341c-.787-.655-.971-1.76-1.441-1.899-21.708-6.4-34.812-20.558-39.062-42.876-3.676-19.309 1.859-36.146 15.836-49.192 20.125-18.783 49.246-20.605 71.806-3.025 16.73 13.036 22.902 30.74 20.022 50.564-3.336 22.968-17.236 38.39-40.213 44.687-.404.11-.675.705-.713 1.407-8.392.334-17.08.334-26.235.334m-21.454-36.669c10.204 18.07 30.175 25.672 48.574 18.49 18.01-7.031 28.397-26.414 23.735-44.917-3.875-15.382-13.602-25.448-29.128-28.983-15.279-3.48-28.55.944-38.494 13.053-10.352 12.605-11.613 26.786-4.687 42.357zM1 145.469c.664-.954 1.768-1.324 1.929-1.94 5.896-22.535 21.172-35.716 43.148-40.216 15.661-3.206 30.469.958 43.73 10.828 23.463 17.466 27.13 54.983 8.825 76.936-9.441 11.323-21.05 17.724-35.34 19.93-19.018 2.933-34.719-3.596-47.786-17.077-6.26-6.458-10.647-14.126-12.543-23.069-.184-.87-.847-1.638-1.625-2.157C1 161.312 1 153.624 1 145.469m79.422-18.446c-.94-.689-1.857-1.412-2.823-2.062-13.934-9.365-32.196-8.827-45.321 1.325-13.282 10.273-18.55 27.688-13.141 43.44 5.406 15.746 20.344 26.318 37.046 26.218 15.669-.093 30.049-9.92 35.776-24.447 6.167-15.644 2.115-31.877-11.537-44.474zM136.531 1c.954.664 1.335 1.79 1.938 1.924 9.248 2.056 17.261 6.768 23.835 13.164 8.068 7.849 13.545 17.576 15.702 28.888 3.54 18.57-1.557 34.94-14.2 48.396-9.502 10.114-21.779 15.98-36.048 16.626-16.829.763-31.336-4.531-43.041-16.81C75.05 83.05 70.205 71.082 69.862 56.876c-.4-16.567 5.571-30.104 17.209-41.403 6.236-6.055 13.723-10.088 22.09-12.488.866-.248 1.622-.876 2.134-1.656C119.355 1 127.708 1 136.53 1m26.484 56.336c.001-.832.037-1.666 0-2.496-.7-15.9-8.07-27.762-22.463-34.4-14.568-6.72-28.753-4.866-41.136 5.415C87.34 35.882 83.143 49.183 86.522 64.42c4.197 18.926 21.287 31.014 41.115 29.72 18.622-1.217 33.302-16.124 35.378-36.804z"/><path fill="#FFF" d="M450.469 341C450 323.539 450 306.078 450 288.309h46v9.57c0 12.314.065 24.63-.072 36.943-.02 1.821-1 3.632-1.232 5.813-14.384.365-29.071.365-44.227.365zM651.282 48.717c4.619 9.326 6.903 18.769 6.77 28.88-.201 15.29-.052 30.585-.052 46.14h-52c0-14.57.026-29.16-.033-43.751-.007-1.75-.295-3.547-.754-5.24-3.298-12.167-12-17.613-24.036-17.664-47.796-.2-95.593-.083-143.39-.083h-6.48c4.073-5.445 7.666-10.289 11.3-15.102 8.198-10.857 16.376-21.729 24.652-32.525 2.124-2.77 4.534-4.53 8.665-4.503 35.971.23 71.947-.155 107.915.253 18.143.205 34.313 6.493 48.337 18.41 8.209 6.975 14.503 15.125 19.106 25.185zM316.957 4.031c-6.724 7.85-13.442 15.338-20.25 22.744-8.37 9.104-16.732 18.22-25.321 27.115-1.27 1.315-3.774 2.01-5.713 2.022-23.318.135-46.638.087-70.315.087V4h4.936c36.815 0 73.63.006 110.446-.015 2.06-.001 4.122-.23 6.217.046z"/><path fill="#0EB8FF" d="M668.792 184.182c-.386 20.576-13.366 36.727-31.647 39.847-19.072 3.255-37.113-6.83-43.494-24.7-5.408-15.144-2.703-29.093 8.3-40.771 10.913-11.582 24.681-15.104 39.774-10.236 15.073 4.861 23.873 15.76 26.526 31.463.222 1.31.349 2.637.54 4.397z"/><path fill="#0EB7FF" d="M526.854 303.99c-6.765-15.23-5.504-29.41 4.848-42.016 9.944-12.109 23.215-16.532 38.494-13.053 15.526 3.535 25.253 13.601 29.128 28.983 4.662 18.503-5.724 37.886-23.735 44.916-18.399 7.183-38.37-.419-48.735-18.83z"/><path fill="#0EB8FF" d="M80.697 127.252c13.377 12.368 17.43 28.601 11.262 44.245-5.727 14.527-20.107 24.354-35.776 24.447-16.702.1-31.64-10.472-37.046-26.217-5.409-15.753-.14-33.168 13.14-43.441 13.126-10.152 31.388-10.69 45.322-1.325.966.65 1.883 1.373 3.098 2.291zM162.998 57.792c-2.059 20.224-16.739 35.131-35.361 36.348-19.828 1.294-36.918-10.794-41.115-29.72-3.38-15.237.817-28.538 12.894-38.565 12.383-10.281 26.568-12.135 41.136-5.415 14.393 6.638 21.764 18.5 22.463 34.4.037.83.001 1.664-.017 2.952z"/></svg>